<svg width="109" height="91" viewBox="0 0 109 91" fill="none" xmlns="http://www.w3.org/2000/svg">
<path fill-rule="evenodd" clip-rule="evenodd" d="M66.9935 8.75505C64.3792 9.11426 60.4729 10.7125 58.4059 12.269C52.9855 16.3506 50.3519 21.8748 50.6674 28.5025C50.8348 32.0214 51.0076 32.5742 51.9398 32.5742C52.5814 32.5742 52.6106 32.497 52.3664 31.4432C52.2222 30.8213 52.1009 29.8709 52.097 29.332L52.0897 28.3517H53.9992H55.909L56.1821 30.3876C56.4221 32.1746 56.5389 32.4352 57.1372 32.5202C57.8056 32.6155 57.8149 32.5766 57.6195 30.4729L57.4208 28.3288L60.4006 28.4157L63.3805 28.5025L63.4696 30.5384C63.5551 32.4946 63.5885 32.5742 64.3244 32.5742C65.0789 32.5742 65.0886 32.5449 64.988 30.5384L64.8859 28.5025L69.4775 28.4193L74.0691 28.3361V30.7371C74.0691 32.0576 73.9369 33.4862 73.7755 33.9118C73.494 34.6535 73.3823 34.6854 71.0657 34.6854C68.6892 34.6854 68.6495 34.6978 68.6495 35.4394C68.6495 36.182 68.6871 36.1934 71.0967 36.1934H73.544L73.3431 37.4753C73.1101 38.9661 72.1277 41.8874 71.3186 43.4974C70.1757 45.7706 68.6341 45.5628 67.3744 42.9656C66.6476 41.467 66.3899 41.3204 66.143 42.2662C66.0246 42.7189 66.2324 43.1683 66.8418 43.7788C67.3587 44.2966 67.7468 45.0413 67.8028 45.6231L67.8968 46.5988L70.0634 46.5393C78.7395 46.3017 86.2772 39.9412 88.1114 31.3102C88.8907 27.643 88.1762 22.4768 86.4079 18.9942C84.6008 15.435 81.1609 12.1939 77.2991 10.4127C73.765 8.7825 70.5545 8.26585 66.9935 8.75505ZM67.9106 11.3868C66.9523 12.8379 65.9828 15.6633 65.7434 17.7048L65.5558 19.3036H69.5112C74.0122 19.3036 73.7921 19.4743 73.0375 16.5726C71.49 10.6208 69.6476 8.75746 67.9106 11.3868ZM64.2232 11.8718C63.2426 12.5951 61.9576 13.8503 61.3674 14.6617C60.2341 16.22 59.0147 18.4634 59.0147 18.99C59.0147 19.4653 63.8213 19.4038 63.9631 18.9266C64.0245 18.7194 64.303 17.5317 64.5818 16.2876C64.8606 15.0435 65.4158 13.2966 65.8154 12.4057C66.2149 11.5147 66.5419 10.7345 66.5419 10.6714C66.5419 10.3225 65.8112 10.7007 64.2232 11.8718ZM72.5636 10.7324C72.5636 10.8183 72.7789 11.306 73.0424 11.8157C73.3055 12.3257 73.8851 14.1851 74.3301 15.948L75.1397 19.1528L77.2091 19.243C80.1886 19.373 80.2576 19.3133 79.3068 17.4249C78.0735 14.9765 76.8138 13.3696 75.1433 12.1152C73.6614 11.0023 72.5636 10.4139 72.5636 10.7324ZM59.918 12.8891C58.1316 14.0536 54.1973 18.3473 54.1973 19.1317C54.1973 19.2264 54.873 19.3036 55.6989 19.3036H57.2007L58.293 17.117C58.8937 15.9145 59.853 14.3534 60.4244 13.6486C61.4873 12.3378 61.2681 12.0091 59.918 12.8891ZM78.8205 13.9737C79.4362 14.8574 80.3377 16.4182 80.8236 17.4421L81.707 19.3036H83.1571C83.9863 19.3036 84.6071 19.1655 84.6071 18.9809C84.6071 17.6901 79.2499 12.3668 77.9507 12.3668C77.8131 12.3668 78.2048 13.09 78.8205 13.9737ZM53.1884 21.0406C52.8762 21.5467 52.0897 25.0299 52.0897 25.9069V26.8437H53.992H55.8943L56.2285 24.3555C56.4124 22.9871 56.6548 21.6299 56.7671 21.3395C56.9481 20.8723 56.762 20.8117 55.1506 20.8117C54.1492 20.8117 53.2661 20.9148 53.1884 21.0406ZM58.3087 21.0379C58.0696 21.4263 57.5093 24.794 57.5093 25.8436V26.8437H60.379C62.4101 26.8437 63.2841 26.7336 63.3693 26.4667C63.4356 26.2595 63.5425 24.9023 63.6069 23.4507L63.724 20.8117H61.0862C59.6353 20.8117 58.3855 20.9136 58.3087 21.0379ZM65.2385 21.0379C65.1644 21.1621 65.0548 22.4856 64.9949 23.9785L64.8859 26.6929L69.4775 26.7762L74.0691 26.8594V24.778C74.0691 23.6332 73.9845 22.2726 73.8809 21.7542L73.6927 20.8117H69.5329C67.2449 20.8117 65.3126 20.9136 65.2385 21.0379ZM75.3794 22.3951C75.4839 23.2661 75.5706 24.6233 75.5718 25.4111L75.5745 26.8437H78.5854C82.0379 26.8437 81.878 27.0328 81.2783 23.657C80.7339 20.5921 80.9932 20.8117 77.9209 20.8117H75.1894L75.3794 22.3951ZM82.3508 21.7243C82.4607 22.2262 82.6407 23.5496 82.7509 24.6649L82.9511 26.6929L85.0265 26.7831L87.1022 26.8733L86.914 25.27C86.8104 24.3881 86.5076 23.0242 86.2405 22.2391L85.7548 20.8117H83.9528H82.1505L82.3508 21.7243ZM75.7771 28.5779C75.7034 28.7022 75.5938 30.0793 75.5336 31.6377L75.424 34.471L77.979 34.4064C79.3844 34.3708 80.5909 34.2849 80.6601 34.2155C80.8547 34.0207 81.5728 30.1125 81.5851 29.1812L81.5962 28.3517H78.7537C77.1901 28.3517 75.8509 28.4537 75.7771 28.5779ZM82.9833 29.0304C82.7626 30.1837 82.2306 34.2152 82.2914 34.2743C82.3592 34.3404 84.9007 34.4526 85.4068 34.4119C85.8608 34.3754 86.6759 31.9544 86.9122 29.9403L87.0986 28.3517H85.106C83.2784 28.3517 83.1023 28.4081 82.9833 29.0304ZM29.2192 29.3929C28.7206 29.9946 29.0867 30.9633 29.8945 31.1802C30.2616 31.2788 31.9543 31.3615 33.6557 31.3636L36.7494 31.3678L37.0649 32.1972C37.2386 32.6535 38.2684 35.8768 39.3532 39.3603C40.438 42.8438 41.4608 45.8638 41.6261 46.071C41.8561 46.3599 44.4177 46.448 52.5781 46.448C64.1365 46.448 63.5912 46.3617 62.9364 48.0872L62.6428 48.8608H53.058C45.5718 48.8608 43.3537 48.9483 42.9274 49.2607C42.1611 49.822 42.5531 50.8867 43.5976 51.083C44.8652 51.3213 63.6379 51.1439 64.0341 50.89C64.5258 50.5751 66.0051 46.0109 65.8864 45.1743C65.8154 44.6727 65.5576 44.461 64.9305 44.3892C63.8914 44.2701 63.8857 44.3105 65.6248 39.4474C66.3194 37.5045 66.8439 35.6044 66.7903 35.225L66.6924 34.5346L53.3865 34.4562L40.0809 34.3775L39.311 31.8494C38.86 30.368 38.3439 29.2454 38.0648 29.138C37.8026 29.0373 35.7868 28.955 33.5853 28.955C30.4528 28.955 29.5031 29.0503 29.2192 29.3929ZM74.5171 38.5309C74.0691 40.5625 73.6093 41.9903 72.7205 44.1105C72.3628 44.9638 72.9833 44.7309 74.888 43.2965C76.6524 41.9679 78.5793 39.5096 79.5687 37.3245L80.0812 36.1934H77.5569H75.0328L74.5171 38.5309ZM80.6966 38.146C80.185 39.22 79.2974 40.7142 78.7242 41.4664C78.1512 42.2186 77.6821 42.9041 77.6821 42.9898C77.6821 43.0757 78.0795 42.94 78.5655 42.6882C79.818 42.0394 82.9812 39.0412 84.0411 37.4982L84.9371 36.1934H83.282H81.6269L80.6966 38.146ZM40.9504 36.7212C40.9519 37.0545 43.015 43.723 43.2194 44.0538C43.3152 44.2095 43.8746 44.3367 44.4623 44.3367C45.4183 44.3367 45.514 44.265 45.368 43.6581C45.2783 43.2847 44.9784 41.6223 44.7011 39.9635C44.4241 38.3047 44.1362 36.8455 44.0613 36.7212C43.9863 36.597 43.2556 36.495 42.4372 36.495C41.6188 36.495 40.9498 36.597 40.9504 36.7212ZM46.526 36.872C46.457 37.0796 46.6994 38.8099 47.0646 40.7175L47.7285 44.1859L48.7049 44.2803L49.681 44.375V41.3774C49.681 39.7288 49.5964 37.956 49.4929 37.4376C49.3161 36.553 49.2231 36.495 47.9781 36.495C47.1841 36.495 46.6009 36.6465 46.526 36.872ZM51.7887 39.4734C51.7887 43.6777 51.9552 44.3367 53.0171 44.3367C53.743 44.3367 53.8939 44.192 54.0369 43.3565C54.1934 42.4409 54.7917 37.2213 54.7971 36.7212C54.7983 36.597 54.1221 36.495 53.2941 36.495H51.7887V39.4734ZM57.0637 36.872C56.8894 37.3953 56.3068 42.4951 56.3059 43.5073C56.305 44.2257 56.4245 44.3367 57.1965 44.3367C58.1786 44.3367 58.0217 44.6893 59.2987 39.6115C59.6392 38.257 59.918 37.0014 59.918 36.8217C59.918 36.3542 57.2203 36.4018 57.0637 36.872ZM62.4661 36.8147C62.2201 37.2135 60.5244 43.4455 60.522 43.9597C60.5193 44.5234 61.3608 44.4143 61.6839 43.8089C62.0443 43.1327 64.1332 37.1281 64.1332 36.7674C64.1332 36.3856 62.7061 36.426 62.4661 36.8147ZM45.131 52.6308C44.6984 52.8661 44.1778 53.4627 43.9736 53.9561C42.7702 56.8669 46.2815 59.2495 48.4999 57.0273C49.9261 55.5986 49.6365 53.5435 47.8805 52.6339C46.8021 52.0753 46.1526 52.0747 45.131 52.6308ZM58.6649 52.509C57.4756 52.962 56.7734 54.629 57.2118 55.959C57.6487 57.2855 58.5399 57.9089 59.9993 57.9089C63.3161 57.9089 63.6382 52.8739 60.3552 52.3464C59.8662 52.268 59.1057 52.341 58.6649 52.509ZM45.8241 55.1191C45.8801 55.4095 46.193 55.6469 46.5196 55.6469C46.8463 55.6469 47.1591 55.4095 47.2151 55.1191C47.291 54.7237 47.1164 54.5913 46.5196 54.5913C45.9229 54.5913 45.7483 54.7237 45.8241 55.1191ZM59.1653 54.8929C58.8874 55.3435 59.274 55.7977 59.9358 55.7977C60.3193 55.7977 60.5202 55.5905 60.5202 55.1945C60.5202 54.5548 59.5124 54.3304 59.1653 54.8929Z" fill="#FFE9FF"/>
<path d="M11.5009 73.4648V63.8535H12.8044L15.8326 70.5025H16.0696L19.0847 63.8535H20.4144V73.4648H19.4138V64.9727L19.4928 64.9858L16.5699 71.4373H15.2533L12.3172 64.9858L12.4226 64.9727V73.4648H11.5009ZM23.8237 73.4648V63.8535H24.8243V73.4648H23.8237ZM24.5873 73.4648V72.5564H29.393V73.4648H24.5873ZM24.5873 69.0278V68.1325H28.9453V69.0278H24.5873ZM24.5873 64.762V63.8535H29.2481V64.762H24.5873ZM36.2834 73.6887C35.4935 73.6887 34.7913 73.557 34.1768 73.2937C33.5712 73.0304 33.0621 72.6705 32.6496 72.2141C32.237 71.7489 31.921 71.2178 31.7016 70.621C31.4909 70.0153 31.3856 69.3789 31.3856 68.7119V68.4749C31.3856 67.8604 31.4866 67.2636 31.6884 66.6843C31.8991 66.105 32.2019 65.5827 32.5969 65.1175C32.9919 64.6523 33.4834 64.2836 34.0715 64.0115C34.6596 63.7394 35.3267 63.6034 36.0728 63.6034C36.854 63.6034 37.5474 63.7526 38.153 64.051C38.7587 64.3407 39.2458 64.7488 39.6145 65.2755C39.9919 65.8021 40.2113 66.4122 40.2728 67.1056H39.259C39.1888 66.5438 39 66.0699 38.6928 65.6836C38.3944 65.2974 38.017 65.0078 37.5605 64.8147C37.1041 64.6216 36.6082 64.525 36.0728 64.525C35.511 64.525 35.0019 64.626 34.5455 64.8278C34.0891 65.0297 33.7029 65.315 33.3869 65.6836C33.0709 66.0523 32.8251 66.4868 32.6496 66.9871C32.4828 67.4786 32.3994 68.0184 32.3994 68.6065C32.3994 69.2297 32.4872 69.8003 32.6627 70.3181C32.8383 70.8272 33.0928 71.2661 33.4264 71.6347C33.7599 72.0034 34.1637 72.2887 34.6377 72.4905C35.1204 72.6924 35.669 72.7934 36.2834 72.7934C37.0383 72.7934 37.701 72.6485 38.2715 72.3589C38.8508 72.0605 39.2985 71.6699 39.6145 71.1871L39.2195 72.4247V69.5808H40.1674V71.9771C39.7549 72.5125 39.2195 72.9338 38.5612 73.241C37.9029 73.5395 37.1436 73.6887 36.2834 73.6887ZM35.9279 69.7915V68.9489H41.0232V69.7915H35.9279ZM42.2339 73.4648L45.7756 63.8535H47.5662L51.2264 73.4648H50.1995L46.7894 64.4855L47.3293 64.762H45.9468L46.513 64.4855L43.2346 73.4648H42.2339ZM44.1299 70.4103L44.459 69.5018H48.9224L49.2647 70.4103H44.1299ZM56.5568 73.6887C55.7493 73.6887 55.069 73.5614 54.5161 73.3068C53.9631 73.0435 53.5418 72.6837 53.2521 72.2272C52.9712 71.762 52.8308 71.2398 52.8308 70.6605H53.8314C53.8314 71.0291 53.9192 71.3758 54.0947 71.7006C54.2791 72.0166 54.5687 72.2755 54.9637 72.4774C55.3675 72.6705 55.8985 72.767 56.5568 72.767C57.1625 72.767 57.6628 72.6793 58.0578 72.5037C58.4615 72.3282 58.7599 72.0912 58.9531 71.7927C59.1549 71.4943 59.2559 71.1608 59.2559 70.7921C59.2559 70.3269 59.0715 69.9407 58.7029 69.6335C58.343 69.3175 57.7988 69.1288 57.0703 69.0673L55.9643 68.962C55.1393 68.8918 54.4809 68.6373 53.9894 68.1984C53.5067 67.7507 53.2653 67.1626 53.2653 66.4341C53.2653 65.8811 53.3969 65.394 53.6603 64.9727C53.9236 64.5514 54.2966 64.2178 54.7794 63.972C55.2709 63.7263 55.859 63.6034 56.5436 63.6034C57.2371 63.6034 57.8295 63.7307 58.3211 63.9852C58.8214 64.231 59.2032 64.5733 59.4665 65.0122C59.7299 65.451 59.8615 65.9601 59.8615 66.5394H58.8609C58.8609 66.1883 58.7819 65.8592 58.6239 65.552C58.4659 65.2448 58.2157 64.999 57.8734 64.8147C57.5311 64.6216 57.0878 64.525 56.5436 64.525C56.0258 64.525 55.5957 64.6128 55.2534 64.7883C54.9198 64.9639 54.6697 65.1965 54.5029 65.4862C54.3449 65.7758 54.2659 66.0918 54.2659 66.4341C54.2659 66.8642 54.4195 67.2285 54.7267 67.5269C55.0339 67.8253 55.4772 67.9965 56.0565 68.0404L57.1625 68.1457C57.812 68.1984 58.365 68.3432 58.8214 68.5802C59.2866 68.8084 59.6421 69.1112 59.8878 69.4887C60.1336 69.8573 60.2565 70.2918 60.2565 70.7921C60.2565 71.3539 60.1029 71.8542 59.7957 72.2931C59.4973 72.7319 59.0715 73.0742 58.5186 73.32C57.9656 73.5658 57.3117 73.6887 56.5568 73.6887ZM64.6982 73.4648V64.5119H65.6988V73.4648H64.6982ZM61.6963 64.762V63.8535H68.7007V64.762H61.6963ZM74.8772 73.6887C74.0433 73.6887 73.3192 73.5395 72.7048 73.241C72.0903 72.9426 71.5812 72.5476 71.1775 72.0561C70.7737 71.5645 70.4709 71.0291 70.269 70.4498C70.0671 69.8705 69.9662 69.3043 69.9662 68.7514V68.5144C69.9662 67.9263 70.0671 67.3426 70.269 66.7633C70.4797 66.1752 70.7913 65.6441 71.2038 65.1702C71.6164 64.6962 72.1298 64.3188 72.7443 64.0379C73.3587 63.7482 74.0697 63.6034 74.8772 63.6034C75.6935 63.6034 76.4045 63.7482 77.0101 64.0379C77.6245 64.3188 78.138 64.6962 78.5505 65.1702C78.9631 65.6441 79.2703 66.1752 79.4722 66.7633C79.6828 67.3426 79.7882 67.9263 79.7882 68.5144V68.7645C79.7882 69.3175 79.6872 69.8836 79.4853 70.463C79.2922 71.0335 78.9894 71.5645 78.5769 72.0561C78.1731 72.5476 77.664 72.9426 77.0496 73.241C76.4352 73.5395 75.711 73.6887 74.8772 73.6887ZM74.8772 72.767C75.4916 72.767 76.0402 72.6573 76.5229 72.4379C77.0057 72.2097 77.4139 71.9025 77.7474 71.5163C78.0809 71.1213 78.3355 70.678 78.511 70.1865C78.6866 69.6949 78.7744 69.1815 78.7744 68.646C78.7744 68.0843 78.6866 67.5576 78.511 67.0661C78.3355 66.5746 78.0766 66.1401 77.7342 65.7626C77.4007 65.3764 76.9925 65.0736 76.5098 64.8542C76.027 64.6347 75.4828 64.525 74.8772 64.525C74.2803 64.525 73.7405 64.6347 73.2577 64.8542C72.775 65.0736 72.3624 65.3764 72.0201 65.7626C71.6866 66.1401 71.4276 66.5746 71.2433 67.0661C71.0678 67.5576 70.98 68.0843 70.98 68.646C70.98 69.1815 71.0678 69.6949 71.2433 70.1865C71.4189 70.678 71.6734 71.1213 72.007 71.5163C72.3405 71.9025 72.7486 72.2097 73.2314 72.4379C73.7229 72.6573 74.2715 72.767 74.8772 72.767ZM82.4853 73.4648V63.814H83.4859V73.4648H82.4853ZM88.4496 73.4648L85.1712 69.2122H86.343L89.674 73.4648H88.4496ZM83.0778 69.8178V68.9225H85.6583C86.1323 68.9225 86.5273 68.8304 86.8433 68.646C87.1593 68.4617 87.3963 68.2115 87.5543 67.8956C87.7123 67.5796 87.7913 67.2197 87.7913 66.8159C87.7913 66.4122 87.7123 66.0523 87.5543 65.7363C87.3963 65.4203 87.1593 65.1702 86.8433 64.9858C86.5273 64.7927 86.1323 64.6962 85.6583 64.6962H83.0778V63.814H85.4872C86.1982 63.814 86.7994 63.9282 87.2909 64.1564C87.7913 64.3758 88.1687 64.705 88.4232 65.1438C88.6866 65.5739 88.8182 66.1006 88.8182 66.7238V66.9081C88.8182 67.5313 88.6866 68.0623 88.4232 68.5012C88.1599 68.9313 87.7825 69.2604 87.2909 69.4887C86.7994 69.7081 86.1982 69.8178 85.4872 69.8178H83.0778ZM91.9279 73.4648V63.8535H92.9286V73.4648H91.9279ZM92.6916 73.4648V72.5564H97.4972V73.4648H92.6916ZM92.6916 69.0278V68.1325H97.0496V69.0278H92.6916ZM92.6916 64.762V63.8535H97.3524V64.762H92.6916Z" fill="#FFE9FF"/>
</svg>
