<svg width="109" height="91" viewBox="0 0 109 91" fill="none" xmlns="http://www.w3.org/2000/svg">
<path fill-rule="evenodd" clip-rule="evenodd" d="M66.9951 8.75407C64.3808 9.11328 60.4745 10.7115 58.4075 12.2681C52.9871 16.3497 50.3535 21.8738 50.669 28.5016C50.8364 32.0204 51.0092 32.5732 51.9414 32.5732C52.583 32.5732 52.6122 32.496 52.368 31.4422C52.2238 30.8203 52.1025 29.8699 52.0986 29.331L52.0913 28.3508H54.0008H55.9106L56.1837 30.3866C56.4237 32.1736 56.5405 32.4342 57.1388 32.5192C57.8072 32.6145 57.8165 32.5756 57.6211 30.4719L57.4224 28.3279L60.4022 28.4147L63.3821 28.5016L63.4712 30.5374C63.5567 32.4936 63.5901 32.5732 64.326 32.5732C65.0805 32.5732 65.0902 32.544 64.9896 30.5374L64.8875 28.5016L69.4791 28.4183L74.0707 28.3351V30.7362C74.0707 32.0566 73.9385 33.4853 73.7771 33.9108C73.4956 34.6525 73.3839 34.6844 71.0673 34.6844C68.6908 34.6844 68.6511 34.6968 68.6511 35.4385C68.6511 36.181 68.6887 36.1925 71.0983 36.1925H73.5456L73.3447 37.4743C73.1117 38.9651 72.1293 41.8864 71.3202 43.4964C70.1773 45.7696 68.6357 45.5618 67.376 42.9647C66.6492 41.466 66.3915 41.3194 66.1446 42.2653C66.0262 42.718 66.234 43.1674 66.8434 43.7778C67.3603 44.2956 67.7485 45.0403 67.8045 45.6221L67.8984 46.5978L70.065 46.5384C78.7411 46.3007 86.2788 39.9402 88.113 31.3092C88.8923 27.642 88.1778 22.4758 86.4095 18.9932C84.6024 15.434 81.1625 12.193 77.3007 10.4117C73.7666 8.78152 70.5561 8.26487 66.9951 8.75407ZM67.9122 11.3859C66.9539 12.8369 65.9844 15.6623 65.745 17.7039L65.5574 19.3027H69.5128C74.0138 19.3027 73.7937 19.4734 73.0391 16.5716C71.4916 10.6198 69.6492 8.75649 67.9122 11.3859ZM64.2248 11.8708C63.2442 12.5941 61.9592 13.8494 61.369 14.6607C60.2357 16.2191 59.0163 18.4624 59.0163 18.989C59.0163 19.4643 63.8229 19.4028 63.9647 18.9257C64.0261 18.7185 64.3046 17.5307 64.5834 16.2866C64.8622 15.0425 65.4174 13.2956 65.817 12.4047C66.2165 11.5137 66.5435 10.7335 66.5435 10.6705C66.5435 10.3215 65.8128 10.6997 64.2248 11.8708ZM72.5652 10.7314C72.5652 10.8173 72.7805 11.305 73.044 11.8147C73.3071 12.3248 73.8867 14.1841 74.3317 15.947L75.1413 19.1519L77.2107 19.242C80.1903 19.372 80.2592 19.3123 79.3084 17.424C78.0751 14.9756 76.8154 13.3686 75.1449 12.1142C73.663 11.0013 72.5652 10.4129 72.5652 10.7314ZM59.9196 12.8882C58.1332 14.0526 54.1989 18.3463 54.1989 19.1307C54.1989 19.2255 54.8746 19.3027 55.7005 19.3027H57.2023L58.2946 17.116C58.8953 15.9135 59.8546 14.3524 60.426 13.6476C61.4889 12.3368 61.2697 12.0081 59.9196 12.8882ZM78.8221 13.9727C79.4378 14.8564 80.3393 16.4172 80.8252 17.4412L81.7086 19.3027H83.1587C83.9879 19.3027 84.6087 19.1645 84.6087 18.9799C84.6087 17.6891 79.2515 12.3658 77.9523 12.3658C77.8147 12.3658 78.2064 13.089 78.8221 13.9727ZM53.19 21.0396C52.8778 21.5457 52.0913 25.0289 52.0913 25.906V26.8428H53.9936H55.8959L56.2301 24.3545C56.414 22.9861 56.6564 21.6289 56.7687 21.3385C56.9497 20.8713 56.7636 20.8107 55.1522 20.8107C54.1508 20.8107 53.2677 20.9138 53.19 21.0396ZM58.3103 21.0369C58.0712 21.4253 57.5109 24.7931 57.5109 25.8426V26.8428H60.3806C62.4117 26.8428 63.2857 26.7327 63.3709 26.4657C63.4372 26.2585 63.5441 24.9013 63.6085 23.4497L63.7256 20.8107H61.0878C59.6369 20.8107 58.3871 20.9126 58.3103 21.0369ZM65.2401 21.0369C65.166 21.1611 65.0564 22.4846 64.9965 23.9775L64.8875 26.692L69.4791 26.7752L74.0707 26.8584V24.7771C74.0707 23.6322 73.9861 22.2716 73.8825 21.7532L73.6943 20.8107H69.5345C67.2465 20.8107 65.3142 20.9126 65.2401 21.0369ZM75.381 22.3941C75.4855 23.2651 75.5722 24.6223 75.5734 25.4101L75.5761 26.8428H78.587C82.0395 26.8428 81.8797 27.0319 81.2799 23.656C80.7355 20.5911 80.9948 20.8107 77.9225 20.8107H75.191L75.381 22.3941ZM82.3524 21.7233C82.4623 22.2252 82.6423 23.5486 82.7525 24.664L82.9527 26.692L85.0281 26.7821L87.1038 26.8723L86.9156 25.269C86.812 24.3871 86.5092 23.0232 86.2421 22.2382L85.7564 20.8107H83.9544H82.1521L82.3524 21.7233ZM75.7787 28.577C75.705 28.7012 75.5954 30.0784 75.5352 31.6367L75.4256 34.47L77.9806 34.4055C79.386 34.3699 80.5925 34.2839 80.6618 34.2145C80.8563 34.0197 81.5744 30.1115 81.5867 29.1802L81.5978 28.3508H78.7553C77.1917 28.3508 75.8525 28.4527 75.7787 28.577ZM82.9849 29.0294C82.7642 30.1827 82.2322 34.2142 82.293 34.2734C82.3608 34.3394 84.9023 34.4516 85.4084 34.4109C85.8624 34.3744 86.6775 31.9534 86.9138 29.9393L87.1002 28.3508H85.1076C83.28 28.3508 83.1039 28.4072 82.9849 29.0294ZM29.2208 29.3919C28.7222 29.9936 29.0883 30.9624 29.8961 31.1792C30.2632 31.2778 31.9559 31.3605 33.6573 31.3626L36.751 31.3668L37.0665 32.1962C37.2402 32.6525 38.27 35.8758 39.3548 39.3593C40.4396 42.8428 41.4624 45.8628 41.6277 46.07C41.8577 46.3589 44.4194 46.447 52.5797 46.447C64.1381 46.447 63.5928 46.3607 62.938 48.0862L62.6444 48.8598H53.0596C45.5734 48.8598 43.3553 48.9473 42.929 49.2597C42.1627 49.821 42.5547 50.8857 43.5992 51.082C44.8668 51.3203 63.6395 51.143 64.0358 50.889C64.5274 50.5741 66.0067 46.01 65.888 45.1733C65.817 44.6717 65.5592 44.46 64.9321 44.3882C63.893 44.2691 63.8873 44.3095 65.6264 39.4465C66.321 37.5035 66.8455 35.6034 66.7919 35.224L66.694 34.5336L53.3881 34.4552L40.0825 34.3765L39.3126 31.8485C38.8616 30.367 38.3455 29.2444 38.0664 29.1371C37.8042 29.0363 35.7884 28.954 33.5869 28.954C30.4544 28.954 29.5047 29.0493 29.2208 29.3919ZM74.5187 38.5299C74.0707 40.5615 73.6109 41.9893 72.7221 44.1096C72.3644 44.9628 72.9849 44.73 74.8896 43.2955C76.654 41.967 78.5809 39.5086 79.5703 37.3235L80.0828 36.1925H77.5585H75.0344L74.5187 38.5299ZM80.6982 38.145C80.1866 39.2191 79.299 40.7132 78.7258 41.4654C78.1528 42.2176 77.6837 42.9031 77.6837 42.9888C77.6837 43.0748 78.0811 42.939 78.5671 42.6872C79.8196 42.0384 82.9828 39.0402 84.0427 37.4972L84.9387 36.1925H83.2836H81.6285L80.6982 38.145ZM40.952 36.7203C40.9535 37.0535 43.0166 43.722 43.221 44.0529C43.3168 44.2085 43.8762 44.3358 44.4639 44.3358C45.4199 44.3358 45.5156 44.264 45.3696 43.6572C45.2799 43.2838 44.98 41.6213 44.7027 39.9625C44.4257 38.3037 44.1378 36.8445 44.0629 36.7203C43.9879 36.596 43.2572 36.4941 42.4388 36.4941C41.6204 36.4941 40.9514 36.596 40.952 36.7203ZM46.5276 36.8711C46.4586 37.0786 46.701 38.8089 47.0662 40.7165L47.7301 44.185L48.7065 44.2794L49.6826 44.3741V41.3764C49.6826 39.7279 49.598 37.955 49.4945 37.4366C49.3177 36.552 49.2247 36.4941 47.9797 36.4941C47.1857 36.4941 46.6025 36.6455 46.5276 36.8711ZM51.7903 39.4724C51.7903 43.6768 51.9568 44.3358 53.0187 44.3358C53.7446 44.3358 53.8955 44.191 54.0385 43.3556C54.195 42.4399 54.7933 37.2203 54.7987 36.7203C54.7999 36.596 54.1237 36.4941 53.2957 36.4941H51.7903V39.4724ZM57.0653 36.8711C56.891 37.3944 56.3084 42.4942 56.3075 43.5064C56.3066 44.2248 56.4261 44.3358 57.1981 44.3358C58.1802 44.3358 58.0233 44.6883 59.3003 39.6105C59.6408 38.256 59.9196 37.0005 59.9196 36.8207C59.9196 36.3532 57.2219 36.4009 57.0653 36.8711ZM62.4677 36.8138C62.2217 37.2125 60.526 43.4445 60.5236 43.9588C60.5209 44.5225 61.3624 44.4133 61.6855 43.808C62.0459 43.1318 64.1348 37.1271 64.1348 36.7664C64.1348 36.3846 62.7077 36.425 62.4677 36.8138ZM45.1326 52.6299C44.7 52.8651 44.1794 53.4617 43.9753 53.9551C42.7718 56.8659 46.2831 59.2486 48.5015 57.0263C49.9277 55.5976 49.6381 53.5425 47.8822 52.6329C46.8037 52.0743 46.1542 52.0737 45.1326 52.6299ZM58.6665 52.508C57.4772 52.961 56.775 54.628 57.2134 55.9581C57.6503 57.2845 58.5415 57.9079 60.0009 57.9079C63.3177 57.9079 63.6398 52.873 60.3568 52.3455C59.8678 52.267 59.1073 52.34 58.6665 52.508ZM45.8257 55.1181C45.8817 55.4085 46.1946 55.6459 46.5212 55.6459C46.8479 55.6459 47.1607 55.4085 47.2167 55.1181C47.2926 54.7227 47.118 54.5903 46.5212 54.5903C45.9245 54.5903 45.7499 54.7227 45.8257 55.1181ZM59.1669 54.8919C58.889 55.3425 59.2756 55.7967 59.9374 55.7967C60.3209 55.7967 60.5218 55.5895 60.5218 55.1935C60.5218 54.5538 59.514 54.3294 59.1669 54.8919Z" fill="#FFE9FF"/>
<path d="M11.5009 73.4639V63.8526H12.8044L15.8326 70.5015H16.0696L19.0847 63.8526H20.4144V73.4639H19.4138V64.9717L19.4928 64.9849L16.5699 71.4363H15.2533L12.3172 64.9849L12.4226 64.9717V73.4639H11.5009ZM23.8237 73.4639V63.8526H24.8243V73.4639H23.8237ZM24.5873 73.4639V72.5554H29.393V73.4639H24.5873ZM24.5873 69.0269V68.1316H28.9453V69.0269H24.5873ZM24.5873 64.761V63.8526H29.2481V64.761H24.5873ZM36.2834 73.6877C35.4935 73.6877 34.7913 73.556 34.1768 73.2927C33.5712 73.0294 33.0621 72.6695 32.6496 72.2131C32.237 71.7479 31.921 71.2168 31.7016 70.62C31.4909 70.0143 31.3856 69.378 31.3856 68.7109V68.4739C31.3856 67.8595 31.4866 67.2626 31.6884 66.6833C31.8991 66.104 32.2019 65.5817 32.5969 65.1165C32.9919 64.6513 33.4834 64.2827 34.0715 64.0106C34.6596 63.7385 35.3267 63.6024 36.0728 63.6024C36.854 63.6024 37.5474 63.7516 38.153 64.0501C38.7587 64.3397 39.2458 64.7479 39.6145 65.2745C39.9919 65.8012 40.2113 66.4112 40.2728 67.1046H39.259C39.1888 66.5429 39 66.0689 38.6928 65.6827C38.3944 65.2965 38.017 65.0068 37.5605 64.8137C37.1041 64.6206 36.6082 64.524 36.0728 64.524C35.511 64.524 35.0019 64.625 34.5455 64.8269C34.0891 65.0287 33.7029 65.314 33.3869 65.6827C33.0709 66.0513 32.8251 66.4858 32.6496 66.9861C32.4828 67.4777 32.3994 68.0175 32.3994 68.6056C32.3994 69.2288 32.4872 69.7993 32.6627 70.3172C32.8383 70.8262 33.0928 71.2651 33.4264 71.6338C33.7599 72.0024 34.1637 72.2877 34.6377 72.4896C35.1204 72.6915 35.669 72.7924 36.2834 72.7924C37.0383 72.7924 37.701 72.6476 38.2715 72.3579C38.8508 72.0595 39.2985 71.6689 39.6145 71.1861L39.2195 72.4237V69.5798H40.1674V71.9761C39.7549 72.5115 39.2195 72.9328 38.5612 73.24C37.9029 73.5385 37.1436 73.6877 36.2834 73.6877ZM35.9279 69.7905V68.9479H41.0232V69.7905H35.9279ZM42.2339 73.4639L45.7756 63.8526H47.5662L51.2264 73.4639H50.1995L46.7894 64.4845L47.3293 64.761H45.9468L46.513 64.4845L43.2346 73.4639H42.2339ZM44.1299 70.4093L44.459 69.5009H48.9224L49.2647 70.4093H44.1299ZM56.5568 73.6877C55.7493 73.6877 55.069 73.5604 54.5161 73.3059C53.9631 73.0426 53.5418 72.6827 53.2521 72.2262C52.9712 71.761 52.8308 71.2388 52.8308 70.6595H53.8314C53.8314 71.0281 53.9192 71.3748 54.0947 71.6996C54.2791 72.0156 54.5687 72.2745 54.9637 72.4764C55.3675 72.6695 55.8985 72.7661 56.5568 72.7661C57.1625 72.7661 57.6628 72.6783 58.0578 72.5027C58.4615 72.3272 58.7599 72.0902 58.9531 71.7918C59.1549 71.4933 59.2559 71.1598 59.2559 70.7911C59.2559 70.3259 59.0715 69.9397 58.7029 69.6325C58.343 69.3165 57.7988 69.1278 57.0703 69.0664L55.9643 68.961C55.1393 68.8908 54.4809 68.6363 53.9894 68.1974C53.5067 67.7498 53.2653 67.1617 53.2653 66.4331C53.2653 65.8802 53.3969 65.393 53.6603 64.9717C53.9236 64.5504 54.2966 64.2168 54.7794 63.9711C55.2709 63.7253 55.859 63.6024 56.5436 63.6024C57.2371 63.6024 57.8295 63.7297 58.3211 63.9842C58.8214 64.23 59.2032 64.5723 59.4665 65.0112C59.7299 65.4501 59.8615 65.9592 59.8615 66.5385H58.8609C58.8609 66.1874 58.7819 65.8582 58.6239 65.551C58.4659 65.2438 58.2157 64.998 57.8734 64.8137C57.5311 64.6206 57.0878 64.524 56.5436 64.524C56.0258 64.524 55.5957 64.6118 55.2534 64.7874C54.9198 64.9629 54.6697 65.1955 54.5029 65.4852C54.3449 65.7748 54.2659 66.0908 54.2659 66.4331C54.2659 66.8632 54.4195 67.2275 54.7267 67.5259C55.0339 67.8244 55.4772 67.9955 56.0565 68.0394L57.1625 68.1447C57.812 68.1974 58.365 68.3422 58.8214 68.5792C59.2866 68.8074 59.6421 69.1103 59.8878 69.4877C60.1336 69.8563 60.2565 70.2908 60.2565 70.7911C60.2565 71.3529 60.1029 71.8532 59.7957 72.2921C59.4973 72.731 59.0715 73.0733 58.5186 73.319C57.9656 73.5648 57.3117 73.6877 56.5568 73.6877ZM64.6982 73.4639V64.5109H65.6988V73.4639H64.6982ZM61.6963 64.761V63.8526H68.7007V64.761H61.6963ZM74.8772 73.6877C74.0433 73.6877 73.3192 73.5385 72.7048 73.24C72.0903 72.9416 71.5812 72.5466 71.1775 72.0551C70.7737 71.5636 70.4709 71.0281 70.269 70.4488C70.0671 69.8695 69.9662 69.3034 69.9662 68.7504V68.5134C69.9662 67.9253 70.0671 67.3416 70.269 66.7623C70.4797 66.1742 70.7913 65.6432 71.2038 65.1692C71.6164 64.6952 72.1298 64.3178 72.7443 64.0369C73.3587 63.7472 74.0697 63.6024 74.8772 63.6024C75.6935 63.6024 76.4045 63.7472 77.0101 64.0369C77.6245 64.3178 78.138 64.6952 78.5505 65.1692C78.9631 65.6432 79.2703 66.1742 79.4722 66.7623C79.6828 67.3416 79.7882 67.9253 79.7882 68.5134V68.7635C79.7882 69.3165 79.6872 69.8827 79.4853 70.462C79.2922 71.0325 78.9894 71.5636 78.5769 72.0551C78.1731 72.5466 77.664 72.9416 77.0496 73.24C76.4352 73.5385 75.711 73.6877 74.8772 73.6877ZM74.8772 72.7661C75.4916 72.7661 76.0402 72.6563 76.5229 72.4369C77.0057 72.2087 77.4139 71.9015 77.7474 71.5153C78.0809 71.1203 78.3355 70.677 78.511 70.1855C78.6866 69.694 78.7744 69.1805 78.7744 68.6451C78.7744 68.0833 78.6866 67.5567 78.511 67.0651C78.3355 66.5736 78.0766 66.1391 77.7342 65.7617C77.4007 65.3755 76.9925 65.0726 76.5098 64.8532C76.027 64.6338 75.4828 64.524 74.8772 64.524C74.2803 64.524 73.7405 64.6338 73.2577 64.8532C72.775 65.0726 72.3624 65.3755 72.0201 65.7617C71.6866 66.1391 71.4276 66.5736 71.2433 67.0651C71.0678 67.5567 70.98 68.0833 70.98 68.6451C70.98 69.1805 71.0678 69.694 71.2433 70.1855C71.4189 70.677 71.6734 71.1203 72.007 71.5153C72.3405 71.9015 72.7486 72.2087 73.2314 72.4369C73.7229 72.6563 74.2715 72.7661 74.8772 72.7661ZM82.4853 73.4639V63.8131H83.4859V73.4639H82.4853ZM88.4496 73.4639L85.1712 69.2112H86.343L89.674 73.4639H88.4496ZM83.0778 69.8168V68.9215H85.6583C86.1323 68.9215 86.5273 68.8294 86.8433 68.6451C87.1593 68.4607 87.3963 68.2106 87.5543 67.8946C87.7123 67.5786 87.7913 67.2187 87.7913 66.815C87.7913 66.4112 87.7123 66.0513 87.5543 65.7353C87.3963 65.4193 87.1593 65.1692 86.8433 64.9849C86.5273 64.7918 86.1323 64.6952 85.6583 64.6952H83.0778V63.8131H85.4872C86.1982 63.8131 86.7994 63.9272 87.2909 64.1554C87.7913 64.3748 88.1687 64.704 88.4232 65.1429C88.6866 65.5729 88.8182 66.0996 88.8182 66.7228V66.9071C88.8182 67.5303 88.6866 68.0614 88.4232 68.5002C88.1599 68.9303 87.7825 69.2595 87.2909 69.4877C86.7994 69.7071 86.1982 69.8168 85.4872 69.8168H83.0778ZM91.9279 73.4639V63.8526H92.9286V73.4639H91.9279ZM92.6916 73.4639V72.5554H97.4972V73.4639H92.6916ZM92.6916 69.0269V68.1316H97.0496V69.0269H92.6916ZM92.6916 64.761V63.8526H97.3524V64.761H92.6916Z" fill="#FFE9FF"/>
</svg>
